<svg viewBox="0 0 260 155" xmlns="http://www.w3.org/2000/svg">
  <!-- § symbol -->
  <g transform="translate(102.31,105) scale(0.13,-0.13)" fill="#aa2820">
    <path d="M105 29V84Q124 52 148.0 36.5Q172 21 205 21Q238 21 263.0 43.5Q288 66 288 103Q288 126 278.0 143.0Q268 160 242.0 179.0Q216 198 165 225Q105 256 77.5 290.0Q50 324 50 375Q50 436 94.5 479.0Q139 522 209 526Q154 552 129.5 580.5Q105 609 105 649Q105 693 138.0 724.0Q171 755 221 755Q272 755 314 721V667Q294 698 272.5 712.5Q251 727 222 727Q185 727 161.0 705.0Q137 683 137 647Q137 613 164.5 588.5Q192 564 261 528Q308 504 332.5 481.0Q357 458 366.5 432.0Q376 406 376 369Q376 334 356.5 301.5Q337 269 304.0 247.5Q271 226 231 222Q279 192 300.0 166.5Q321 141 321 99Q321 55 286.0 23.5Q251 -8 205 -8Q172 -8 148.0 1.0Q124 10 105 29ZM341 376Q341 410 323.0 438.0Q305 466 275.0 482.5Q245 499 211 499Q177 499 148.0 482.0Q119 465 102.0 436.5Q85 408 85 374Q85 340 103.0 312.0Q121 284 151.0 267.5Q181 251 215 251Q249 251 278.0 268.0Q307 285 324.0 313.5Q341 342 341 376Z"/>
  </g>

  <!-- Diamond divider -->
  <line x1="35" y1="118" x2="100" y2="118" stroke="#cc342d" stroke-width="0.8"/>
  <polygon points="130,114 134,118 130,122 126,118" fill="#cc342d" opacity="0.7"/>
  <line x1="160" y1="118" x2="225" y2="118" stroke="#cc342d" stroke-width="0.8"/>

  <!-- "perf" text -->
  <g transform="translate(91.91,143) scale(0.028,-0.028)" fill="#aa2820">
    <path d="M63 450H95V340Q122 394 179.0 427.5Q236 461 299 461Q364 461 418.5 429.0Q473 397 505.0 343.0Q537 289 537 225Q537 161 505.0 107.0Q473 53 418.5 21.0Q364 -11 299 -11Q238 -11 181.5 22.0Q125 55 95 109V-200H63ZM505 225Q505 280 477.0 328.0Q449 376 402.0 404.5Q355 433 300 433Q245 433 197.5 404.0Q150 375 121.5 327.0Q93 279 93 224Q93 169 121.5 121.5Q150 74 198.0 45.5Q246 17 301 17Q356 17 403.0 45.5Q450 74 477.5 121.5Q505 169 505 225Z"/>
  </g>
  <g transform="translate(117.99,143) scale(0.028,-0.028)" fill="#aa2820">
    <path d="M459 117V66Q422 25 378.0 6.5Q334 -12 278 -12Q216 -12 161.5 21.0Q107 54 74.5 109.0Q42 164 42 226Q42 293 74.0 346.5Q106 400 161.5 430.0Q217 460 285 460Q389 460 462 378L148 68Q181 41 212.0 28.5Q243 16 282 16Q334 16 381.0 43.0Q428 70 459 117ZM129 87 422 378Q389 407 358.0 419.5Q327 432 284 432Q223 432 175.5 405.5Q128 379 101.0 333.0Q74 287 74 229Q74 146 129 87Z"/>
  </g>
  <g transform="translate(141.96,143) scale(0.028,-0.028)" fill="#aa2820">
    <path d="M63 450H95V346Q115 395 153.5 423.0Q192 451 241 451Q272 451 304 438V401Q275 423 239 423Q203 423 169.5 401.0Q136 379 115.5 342.0Q95 305 95 263V0H63Z"/>
  </g>
  <g transform="translate(160.92,143) scale(0.028,-0.028)" fill="#aa2820">
    <path d="M95 469V450H234V422H95V0H63V469Q63 516 85.5 554.5Q108 593 147.5 615.5Q187 638 234 638V610Q196 610 164.0 591.5Q132 573 113.5 540.5Q95 508 95 469Z"/>
  </g>
</svg>
